<svg xmlns="http://www.w3.org/2000/svg" version="1.1" xmlns:xlink="http://www.w3.org/1999/xlink" xmlns:svgjs="http://svgjs.dev/svgjs" width="100%" height="100%" viewBox="0 0 1000 600"><rect width="1000" height="600" x="0" y="0" fill="white"/><g><rect width="333.3333333333333" height="333.3333333333333" rx="13.333333333333334" ry="13.333333333333334" y="136.177891431625" fill="cyan" transform="matrix(1.0969178910360973,0,0,1.0969178910360973,0,-32.19560599445994)" x="113.95565795898438"/><path d="M212.14721190459466 332.9436481877126L212.14721190459466 332.9436481877126Q198.92826548870772 332.9436481877126 190.6634031957766 325.37960755119957Q182.39854090284544 317.81556691468654 182.39854090284544 304.7657843469006L182.39854090284544 304.7657843469006Q182.39854090284544 302.85664948976154 182.66436980700405 300.5850206724062Q182.90603244714822 298.31339185505084 183.2685264073645 295.7034353414937L183.2685264073645 295.7034353414937Q182.39854090284544 295.7034353414937 180.99689759000916 292.75515113173464L180.99689759000916 292.75515113173464Q179.78858438928825 289.80686692197554 179.78858438928825 288.8402163613988Q179.78858438928825 287.87356580082206 180.48940604570637 287.87356580082206L180.48940604570637 287.87356580082206L185.51598896070544 288.9368814174565Q192.6692031089733 268.56472085330165 213.18636125721463 253.26747573217472L213.18636125721463 253.26747573217472Q233.89684951757133 237.77690049893243 253.3748583131927 237.77690049893243L253.3748583131927 237.77690049893243Q260.1655785012443 237.77690049893243 262.60637116670057 239.1543775477543L262.60637116670057 239.1543775477543Q264.51550602383963 232.72615131991898 266.4246408809787 232.02532966350083L266.4246408809787 232.02532966350083Q266.9562986892959 231.8561658153999 267.657120345714 231.8561658153999L267.657120345714 231.8561658153999Q273.7470188773475 231.8561658153999 273.7470188773475 234.12779463275524L273.7470188773475 234.12779463275524Q273.2153610690303 234.12779463275524 269.735419050954 238.98521369965337L269.735419050954 238.98521369965337Q268.69626969833405 240.55602086059056 266.3521420889354 244.13262793472452Q264.0080144795368 247.68506874484405 262.60637116670057 249.9566975621994L262.60637116670057 249.9566975621994Q261.3980579659796 252.2041601155403 260.262243557302 254.74161783705426Q259.1264291486243 257.2549092945538 259.1264291486243 258.65655260739004L259.1264291486243 258.65655260739004L259.8272508050424 261.26650912094726Q259.8272508050424 261.60483681714913 259.4647568448261 261.60483681714913L259.4647568448261 261.60483681714913Q256.85480033126896 261.60483681714913 256.85480033126896 255.34577443741472L256.85480033126896 255.34577443741472Q256.85480033126896 249.25587590578124 260.86640015766244 242.2959918696287L260.86640015766244 242.2959918696287Q259.65808695694153 242.12682802152779 258.5222725482638 242.03016296547008Q257.3864581395861 241.95766417342685 256.5164726350671 241.95766417342685L256.5164726350671 241.95766417342685Q238.41594088826758 241.95766417342685 219.2762597888481 256.5540876381357L219.2762597888481 256.5540876381357Q199.9674148413277 271.00551351875794 193.5391886134924 289.2752091136584L193.5391886134924 289.2752091136584Q199.9674148413277 289.2752091136584 206.4923061252207 289.1785440576007Q213.01719740911372 289.10604526555744 218.33377549228578 289.00938020949974Q223.62618731144346 288.9368814174565 226.23614382500068 288.74355130534116L226.23614382500068 288.74355130534116Q231.45605685211507 288.4052236091393 236.94179878338807 287.5352381046202Q242.42754071466106 286.66525260010116 247.98578143797732 285.26360928726484L247.98578143797732 285.26360928726484Q249.2182609027127 285.26360928726484 249.2182609027127 286.13359479178393L249.2182609027127 286.13359479178393Q249.2182609027127 289.44437296175926 227.468623289736 292.75515113173464L227.468623289736 292.75515113173464Q205.52565556464398 295.896765453609 191.436723644238 296.2350931498109L191.436723644238 296.2350931498109Q190.92923209993518 299.5458713197862 190.92923209993518 302.49415552954525L190.92923209993518 302.49415552954525Q190.92923209993518 314.1664610485094 198.7591016406068 321.36800772480615Q206.5889711812784 328.5937206651173 218.76876824454536 328.5937206651173L218.76876824454536 328.5937206651173Q243.12836237107922 328.5937206651173 261.7363856621815 308.4148902130778L261.7363856621815 308.4148902130778Q264.17717832763776 305.97409754762157 265.21632768025773 305.97409754762157L265.21632768025773 305.97409754762157Q265.9171493366759 305.97409754762157 265.9171493366759 307.01324690024154L265.9171493366759 307.01324690024154Q265.9171493366759 308.58405406117873 264.3463421757387 310.3240250702169L264.3463421757387 310.3240250702169Q255.11482932223083 320.76385112444564 240.1559118973057 326.8537496560791L240.1559118973057 326.8537496560791Q225.02783062427972 332.9436481877126 212.14721190459466 332.9436481877126ZM231.81855081233135 377.8445667265022L231.81855081233135 377.8445667265022Q224.3270089678616 377.8445667265022 218.0679465881272 372.62465369938786L218.0679465881272 372.62465369938786Q211.80888420839278 367.4047406722734 211.80888420839278 358.34239166686643L211.80888420839278 358.34239166686643Q211.80888420839278 357.3032423142465 212.3163757526956 357.3032423142465L212.3163757526956 357.3032423142465Q213.01719740911372 357.3032423142465 213.5488552174309 359.2123771713856L213.5488552174309 359.2123771713856Q217.36712493170904 372.45548985128687 230.58607134759598 372.45548985128687L230.58607134759598 372.45548985128687Q249.2182609027127 372.45548985128687 267.1254625373968 328.5937206651173L267.1254625373968 328.5937206651173Q267.657120345714 327.0229135041801 268.09211309797354 326.0804292076177Q268.5271058502331 325.11377864704104 269.2279275066512 323.3013088459596Q269.90458289905496 321.4646727808638 271.20956115583357 317.4530729544704Q272.5145394126122 313.46563939209125 275.12449592616935 306.1432613957225L275.12449592616935 306.1432613957225L283.1476955789563 283.01614673392396Q274.7861682299675 280.5753540684677 274.7861682299675 273.2771423361133L274.7861682299675 273.2771423361133Q274.7861682299675 271.7063351751761 275.65615373448657 271.7063351751761L275.65615373448657 271.7063351751761L284.5251726277782 273.2771423361133L285.5643219803982 273.2771423361133Q286.4343074849172 273.2771423361133 286.7968014451335 272.74548452779607L286.7968014451335 272.74548452779607Q288.70593630227256 270.13552801423884 289.4067579586907 266.48642214806165L289.4067579586907 266.48642214806165Q292.71753612866604 256.2157599419338 295.56915528236743 249.0867120576803Q298.44494070008324 241.95766417342685 301.05489721364046 237.94606434703337L301.05489721364046 237.94606434703337Q306.63730420097113 229.7778671101599 314.46717374164274 229.7778671101599L314.46717374164274 229.7778671101599Q318.4546073040218 229.7778671101599 321.42705777779526 232.02532966350083Q324.3753419875543 234.29695848085618 324.3753419875543 237.77690049893243L324.3753419875543 237.77690049893243Q324.3753419875543 246.11426158390685 318.98626511233897 246.11426158390685L318.98626511233897 246.11426158390685Q317.24629410330084 246.11426158390685 317.24629410330084 245.07511223128685L317.24629410330084 245.07511223128685Q318.62377115212274 241.95766417342685 318.62377115212274 237.6077366508315L318.62377115212274 237.6077366508315Q318.62377115212274 232.8953151680199 316.0138146385655 232.8953151680199L316.0138146385655 232.8953151680199Q310.79390161145113 232.8953151680199 303.1573621828949 247.85423259294498L303.1573621828949 247.85423259294498Q302.62570437457765 249.0867120576803 301.6590538140009 251.1650107629203Q300.7165695174386 253.26747573217472 298.2757768519823 260.22735976832723L298.2757768519823 260.22735976832723Q294.79583483390604 270.13552801423884 294.79583483390604 271.00551351875794L294.79583483390604 271.00551351875794Q294.79583483390604 272.74548452779607 297.0674636512614 272.74548452779607L297.0674636512614 272.74548452779607L319.1554289604399 272.21382671947885Q319.6870867687571 272.21382671947885 319.6870867687571 272.914648375897L319.6870867687571 272.914648375897Q307.84561740169204 276.9262482022905 300.61990446138094 279.27037581168906Q293.39419152106973 281.61450342108765 290.6150711594116 282.3153250775058L290.6150711594116 282.3153250775058Q290.6150711594116 283.01614673392396 289.4067579586907 286.56858754404345Q288.17427849395534 290.1451946181774 285.2259942841963 299.8841990159881L285.2259942841963 299.8841990159881Q278.79776805636095 320.93301497254663 272.7078695247275 335.65026975732746Q266.61797099309405 350.343358278094 260.1655785012443 359.57487113160187L260.1655785012443 359.57487113160187Q247.47828989367457 377.8445667265022 231.81855081233135 377.8445667265022ZM320.36374216116087 339.56520452766324L320.36374216116087 339.56520452766324Q313.7663520852246 339.56520452766324 313.23469427690736 328.08622912081444L313.23469427690736 328.08622912081444Q311.8572172280855 328.4245568170163 309.4889233546725 329.1978772654777Q307.1447957452739 329.9953639779535 303.6648537271976 331.2036771786745L303.6648537271976 331.2036771786745Q302.09404656626043 331.2036771786745 302.09404656626043 328.9562146253335L302.09404656626043 328.9562146253335Q302.09404656626043 324.074629294421 303.49568987909674 322.6729859815847L303.49568987909674 322.6729859815847Q305.2356608881349 321.4646727808638 314.10467978142646 319.7247017718257L314.10467978142646 319.7247017718257Q314.97466528594555 312.2331599273559 317.6812868555604 303.0258133378625Q320.36374216116087 293.7943004843546 324.71366968375617 282.846982885823L324.71366968375617 282.846982885823Q333.41352472894687 260.73485131263004 344.04668089529105 244.3742905748687L344.04668089529105 244.3742905748687Q354.8248346457217 227.8445659890064 361.253060873557 227.8445659890064L361.253060873557 227.8445659890064Q365.4338245480514 227.8445659890064 369.6145882225458 230.45452250256363L369.6145882225458 230.45452250256363Q373.96451574514117 233.06447901612083 373.96451574514117 236.0369294898943L373.96451574514117 236.0369294898943Q373.96451574514117 241.59517021321057 364.2255113473305 256.5540876381357L364.2255113473305 256.5540876381357Q359.3439260164179 264.0456294826054 353.35069254084215 271.875499023277Q347.33329280125196 279.7053685639486 340.20424491699845 288.0668959129374L340.20424491699845 288.0668959129374Q340.0350810688975 288.9368814174565 338.2951100598594 290.9185150666388Q336.55513905082125 292.9243149798355 336.3859752027203 293.2868089400518L336.3859752027203 293.2868089400518Q333.24436088084593 297.10507865432993 332.2052115282259 297.10507865432993L332.2052115282259 297.10507865432993L331.67355371990874 296.76675095812806Q331.67355371990874 296.06592930170996 341.2433942696184 283.886132238443L341.2433942696184 283.886132238443Q368.4062750218249 248.9175482095794 368.4062750218249 237.24524269061524L368.4062750218249 237.24524269061524Q368.4062750218249 233.76530067253896 366.13464620446956 233.76530067253896L366.13464620446956 233.76530067253896Q363.3555258428114 233.76530067253896 359.0055983202161 239.6860353560715L359.0055983202161 239.6860353560715Q352.3840419802654 249.0867120576803 345.95581575243006 259.96153086416865Q339.5034232605803 270.836349670657 334.114346385365 281.61450342108765L334.114346385365 281.61450342108765Q328.5561056620487 292.9243149798355 324.81033473981387 302.22832662538667Q321.06456381757897 311.5565045349522 319.32459280854084 318.6855524192057L319.32459280854084 318.6855524192057Q339.5034232605803 314.5047887447113 355.52565630213985 314.5047887447113L355.52565630213985 314.5047887447113Q381.45605758961085 314.5047887447113 381.45605758961085 326.51542195987724L381.45605758961085 326.51542195987724Q381.45605758961085 327.89289900869915 379.0152649241546 332.43615664340984L379.0152649241546 332.43615664340984Q376.7436361067993 336.78608416600514 373.7953518970403 336.78608416600514L373.7953518970403 336.78608416600514Q373.43285793682395 336.42359020578886 373.43285793682395 336.254426357688L373.43285793682395 336.254426357688Q376.2361445624965 333.47530599602976 377.3477927071598 330.9378482745159Q378.48360711583746 328.4245568170163 378.48360711583746 327.5545713124973L378.48360711583746 327.5545713124973Q378.48360711583746 319.38637407562385 356.9031333509617 319.38637407562385L356.9031333509617 319.38637407562385Q342.30670988625286 319.38637407562385 317.75378564760365 326.8537496560791L317.75378564760365 326.8537496560791Q317.75378564760365 330.3336916741554 318.98626511233897 334.5144553486498L318.98626511233897 334.5144553486498Q320.025414464959 337.99439736672605 320.2912433691176 338.76771781518744Q320.55707227327616 339.56520452766324 320.36374216116087 339.56520452766324Z " fill="black" transform="matrix(1.0969178910360973,0,0,1.0969178910360973,0,-32.19560599445994)"/><path d="M563.022712899503 332.88570466082365L563.022712899503 332.88570466082365Q549.7867066359901 332.88570466082365 541.5111780397901 325.31190217365815Q533.2356494435901 317.7380996864928 533.2356494435901 304.6714755872297L533.2356494435901 304.6714755872297Q533.2356494435901 302.7598768764115 533.5018214159825 300.4853163850583Q533.7437959363392 298.2107558937051 534.1067577168744 295.5974310738525L534.1067577168744 295.5974310738525Q533.2356494435901 295.5974310738525 531.8321972255212 292.6453419255005L531.8321972255212 292.6453419255005Q530.6223246237375 289.6932527771484 530.6223246237375 288.72535469572153Q530.6223246237375 287.75745661429465 531.3240507327721 287.75745661429465L531.3240507327721 287.75745661429465L536.3571207561919 288.8221445038642Q543.519566558751 268.42369243779234 564.0632033370368 253.10670529921168L564.0632033370368 253.10670529921168Q584.8004197316081 237.59613854434568 604.3035660723601 237.59613854434568L604.3035660723601 237.59613854434568Q611.1030500943841 237.59613854434568 613.546992749987 238.975393310379L613.546992749987 238.975393310379Q615.4585914608051 232.53887106889013 617.3701901716232 231.8371449598556L617.3701901716232 231.8371449598556Q617.902534116408 231.6677627956059 618.6042602254424 231.6677627956059L618.6042602254424 231.6677627956059Q624.702018138432 231.6677627956059 624.702018138432 233.94232328695912L624.702018138432 233.94232328695912Q624.1696741936471 233.94232328695912 620.6852411005103 238.8060111461293L620.6852411005103 238.8060111461293Q619.6447506629763 240.37884552844798 617.2975978155162 243.96006842972753Q614.950444968056 247.51709387897137 613.546992749987 249.79165437032458L613.546992749987 249.79165437032458Q612.3371201482034 252.0420174096421 611.1998399025267 254.5827498733877Q610.0625596568501 257.09928488509763 610.0625596568501 258.5027371031666L610.0625596568501 258.5027371031666L610.7642857658846 261.1160619230193Q610.7642857658846 261.4548262515187 610.4013239853496 261.4548262515187L610.4013239853496 261.4548262515187Q607.7879991654969 261.4548262515187 607.7879991654969 255.18768617427952L607.7879991654969 255.18768617427952Q607.7879991654969 249.08992826129008 611.8047762034186 242.1210620750164L611.8047762034186 242.1210620750164Q610.594903601635 241.9516799107667 609.4576233559583 241.854890102624Q608.3203431102818 241.78229774651697 607.4492348369974 241.78229774651697L607.4492348369974 241.78229774651697Q589.3253432622789 241.78229774651697 570.1609612500263 256.39755877606314L570.1609612500263 256.39755877606314Q550.8271970735241 270.8676350933953 544.3906748320351 289.16090883236365L544.3906748320351 289.16090883236365Q550.8271970735241 289.16090883236365 557.3605091231556 289.06411902422093Q563.893821172787 288.9915266681139 569.217260620635 288.89473685997126Q574.5165026164473 288.8221445038642 577.1298274362999 288.6285648875788L577.1298274362999 288.6285648875788Q582.3564770760051 288.2898005590794 587.8492986881029 287.4186922857952Q593.3421203002005 286.547584012511 598.9075342684051 285.144131794442L598.9075342684051 285.144131794442Q600.1416043222245 285.144131794442 600.1416043222245 286.0152400677262L600.1416043222245 286.0152400677262Q600.1416043222245 289.3302909966133 578.3638974901193 292.6453419255005L578.3638974901193 292.6453419255005Q556.3926110417287 295.79101069013785 542.2854965049316 296.1297750186373L542.2854965049316 296.1297750186373Q541.7773500121825 299.4448259475244 541.7773500121825 302.39691509587647L541.7773500121825 302.39691509587647Q541.7773500121825 314.0842844291062 549.6173244717404 321.2951251357366Q557.4572989312983 328.53016329440266 569.6528147572772 328.53016329440266L569.6528147572772 328.53016329440266Q594.0438464092349 328.53016329440266 612.6758844767028 308.3252908446162L612.6758844767028 308.3252908446162Q615.1198271323057 305.8813481890133 616.1603175698397 305.8813481890133L616.1603175698397 305.8813481890133Q616.8620436788741 305.8813481890133 616.8620436788741 306.9218386265472L616.8620436788741 306.9218386265472Q616.8620436788741 308.4946730088659 615.2892092965553 310.2368895554343L615.2892092965553 310.2368895554343Q606.0457826189286 320.6901888348448 591.0675598088472 326.7879467478342L591.0675598088472 326.7879467478342Q575.9199548345164 332.88570466082365 563.022712899503 332.88570466082365ZM640.3819670575476 264.0681510713713L640.3819670575476 264.0681510713713Q636.5345721838758 264.0681510713713 634.1148269803086 261.9871701963035L634.1148269803086 261.9871701963035Q637.4056804571601 259.7126097049503 641.1562855226891 256.05879444756374Q644.9068905882184 252.4049791901772 648.9236676261401 247.34771171472167L648.9236676261401 247.34771171472167Q649.2624319546394 247.34771171472167 649.2624319546394 248.21881998800586L649.2624319546394 248.21881998800586L648.3913236813553 253.2760874634614Q647.5202154080712 258.67211926741635 645.245654916718 261.3822338954117Q642.9952918774004 264.0681510713713 640.3819670575476 264.0681510713713ZM623.661527700898 327.48967285686876L623.661527700898 327.48967285686876Q617.0314258431238 327.48967285686876 617.0314258431238 317.90748185074244L617.0314258431238 317.90748185074244Q617.0314258431238 303.43740553341036 627.4847251225342 279.74809999048705L627.4847251225342 279.74809999048705Q627.4847251225342 279.04637388145255 628.4526232039611 277.13477517063444Q629.3963238333524 275.22317645981633 629.9286677781372 274.6908325150315L629.9286677781372 274.6908325150315Q631.1385403799209 273.4809599132479 633.2437187070243 273.4809599132479L633.2437187070243 273.4809599132479Q639.3414766200137 273.4809599132479 639.8496231127629 275.9249025688508L639.8496231127629 275.9249025688508Q637.0669161286605 280.44982609952154 634.5503811169506 286.3782018482613Q632.009648653205 292.306577597001 629.5657059976022 299.4448259475244L629.5657059976022 299.4448259475244Q626.9523811777494 307.11541824283256 625.8392983841086 312.0758959101454Q624.702018138432 317.0363735774582 624.702018138432 319.9884627258102L624.702018138432 319.9884627258102Q624.702018138432 324.34400409223133 626.9523811777494 324.34400409223133L626.9523811777494 324.34400409223133Q628.5252155600683 324.34400409223133 630.9691582156711 322.4324053814132L630.9691582156711 322.4324053814132Q632.8807569264893 320.85957099909444 633.6792728436665 320.18204234209566Q634.453591308808 319.4803162330612 635.1553174178425 318.94797228827633L635.1553174178425 318.94797228827633Q635.8570435268771 318.94797228827633 635.8570435268771 319.6496983973109L635.8570435268771 319.6496983973109Q635.8570435268771 321.561297108129 630.7997760514213 324.53758370851665L630.7997760514213 324.53758370851665Q625.7425085759659 327.48967285686876 623.661527700898 327.48967285686876ZM604.1341839081103 377.84457054310303L604.1341839081103 377.84457054310303Q596.6571712290877 377.84457054310303 590.3658336998128 372.6179209033978L590.3658336998128 372.6179209033978Q584.0986936225736 367.3912712636926 584.0986936225736 358.3172267503154L584.0986936225736 358.3172267503154Q584.0986936225736 357.2767363127815 584.6310375673584 357.2767363127815L584.6310375673584 357.2767363127815Q585.3327636763929 357.2767363127815 585.840910169142 359.1883350235996L585.840910169142 359.1883350235996Q589.6883050428139 372.44853873914815 602.9243113063268 372.44853873914815L602.9243113063268 372.44853873914815Q621.5563493737945 372.44853873914815 639.5108587842635 328.53016329440266L639.5108587842635 328.53016329440266Q640.0190052770126 326.9573289120839 640.4545594136548 326.0136282826927Q640.8901135502967 325.04573020126577 641.5918396593313 323.2309212985904Q642.2935657683659 321.3919149438793 643.6002281782921 317.3751379059577Q644.9068905882184 313.38255832007167 647.5202154080712 306.05073035326296L647.5202154080712 306.05073035326296L655.5295720318786 282.8937687551245Q647.1814510795716 280.44982609952154 647.1814510795716 273.1421955847485L647.1814510795716 273.1421955847485Q647.1814510795716 271.5693612024298 648.052559352856 271.5693612024298L648.052559352856 271.5693612024298L656.9330242499477 273.1421955847485L657.9735146874816 273.1421955847485Q658.8446229607657 273.1421955847485 659.1833872892653 272.60985163996367L659.1833872892653 272.60985163996367Q661.1191834521189 269.99652682011106 661.7967121091178 266.3427115627245L661.7967121091178 266.3427115627245Q665.1117630380049 256.05879444756374 667.9912598302499 248.92054609704036Q670.870756622495 241.78229774651697 673.4840814423476 237.76552070859537L673.4840814423476 237.76552070859537Q679.0494954105523 229.5867819205381 686.8894698701101 229.5867819205381L686.8894698701101 229.5867819205381Q690.9062469080318 229.5867819205381 693.8583360563839 231.8371449598556Q696.8346226567714 234.11170545120885 696.8346226567714 237.59613854434568L696.8346226567714 237.59613854434568Q696.8346226567714 245.94425949665265 691.4143934007809 245.94425949665265L691.4143934007809 245.94425949665265Q689.6721768542125 245.94425949665265 689.6721768542125 244.90376905911876L689.6721768542125 244.90376905911876Q691.0756290722813 241.78229774651697 691.0756290722813 237.42675638009595L691.0756290722813 237.42675638009595Q691.0756290722813 232.70825323313983 688.4623042524288 232.70825323313983L688.4623042524288 232.70825323313983Q683.2356546127237 232.70825323313983 675.5650623174154 247.6864760432211L675.5650623174154 247.6864760432211Q675.0569158246662 248.92054609704036 674.0890177432393 251.0015269721082Q673.1211196618126 253.10670529921168 670.7013744582453 260.07557148548534L670.7013744582453 260.07557148548534Q667.2169413651084 269.99652682011106 667.2169413651084 270.8676350933953L667.2169413651084 270.8676350933953Q667.2169413651084 272.60985163996367 669.4673044044259 272.60985163996367L669.4673044044259 272.60985163996367L691.6079730170663 272.0775076951789Q692.1161195098155 272.0775076951789 692.1161195098155 272.7792338042134L692.1161195098155 272.7792338042134Q680.2835654643716 276.796010842135 673.0485273057054 279.14316368959527Q665.8134891470395 281.49031653705543 663.0307821629372 282.19204264609L663.0307821629372 282.19204264609Q663.0307821629372 282.8937687551245 661.7967121091178 286.4507942043683Q660.5868395073342 290.0320171056478 657.6347503589823 299.78359027602386L657.6347503589823 299.78359027602386Q651.1740306654576 320.85957099909444 645.0762727524682 335.59581928881903Q638.9785148394787 350.30787012650785 632.5419925979897 359.5512968041347L632.5419925979897 359.5512968041347Q619.8141328272261 377.84457054310303 604.1341839081103 377.84457054310303ZM636.897533964411 377.84457054310303L636.897533964411 377.84457054310303Q629.3963238333524 377.84457054310303 623.1291837561132 372.6179209033978L623.1291837561132 372.6179209033978Q616.8620436788741 367.3912712636926 616.8620436788741 358.3172267503154L616.8620436788741 358.3172267503154Q616.8620436788741 357.2767363127815 617.3701901716232 357.2767363127815L617.3701901716232 357.2767363127815Q618.0719162806577 357.2767363127815 618.6042602254424 359.1883350235996L618.6042602254424 359.1883350235996Q622.4274576470788 372.44853873914815 635.6634639105916 372.44853873914815L635.6634639105916 372.44853873914815Q654.3196994300949 372.44853873914815 672.2500113885283 328.53016329440266L672.2500113885283 328.53016329440266Q672.782355333313 326.9573289120839 673.2179094699552 326.0136282826927Q673.6534636065974 325.04573020126577 674.3551897156319 323.2309212985904Q675.0569158246662 321.3919149438793 676.3635782345928 317.3751379059577Q677.670240644519 313.38255832007167 680.2835654643716 306.05073035326296L680.2835654643716 306.05073035326296L688.2929220881792 282.8937687551245Q679.9206036838364 280.44982609952154 679.9206036838364 273.1421955847485L679.9206036838364 273.1421955847485Q679.9206036838364 271.5693612024298 680.7917119571207 271.5693612024298L680.7917119571207 271.5693612024298L689.6721768542125 273.1421955847485L690.736864743782 273.1421955847485Q691.6079730170663 273.1421955847485 691.9467373455657 272.60985163996367L691.9467373455657 272.60985163996367Q693.8583360563839 269.99652682011106 694.5600621654182 266.3427115627245L694.5600621654182 266.3427115627245Q697.8751130943053 256.05879444756374 700.7546098865505 248.92054609704036Q703.6099092267598 241.78229774651697 706.2232340466123 237.76552070859537L706.2232340466123 237.76552070859537Q711.8128454668529 229.5867819205381 719.6528199264105 229.5867819205381L719.6528199264105 229.5867819205381Q723.6453995122965 229.5867819205381 726.6216861126843 231.8371449598556Q729.5737752610364 234.11170545120885 729.5737752610364 237.59613854434568L729.5737752610364 237.59613854434568Q729.5737752610364 245.94425949665265 724.1777434570813 245.94425949665265L724.1777434570813 245.94425949665265Q722.4355269105129 245.94425949665265 722.4355269105129 244.90376905911876L722.4355269105129 244.90376905911876Q723.838979128582 241.78229774651697 723.838979128582 237.42675638009595L723.838979128582 237.42675638009595Q723.838979128582 232.70825323313983 721.2256543087294 232.70825323313983L721.2256543087294 232.70825323313983Q715.9990046690241 232.70825323313983 708.328412373716 247.6864760432211L708.328412373716 247.6864760432211Q707.7960684289312 248.92054609704036 706.8523677995399 251.0015269721082Q705.884469718113 253.10670529921168 703.44052706251 260.07557148548534L703.44052706251 260.07557148548534Q699.9560939693733 269.99652682011106 699.9560939693733 270.8676350933953L699.9560939693733 270.8676350933953Q699.9560939693733 272.60985163996367 702.2306544607266 272.60985163996367L702.2306544607266 272.60985163996367L724.3471256213311 272.0775076951789Q724.8794695661159 272.0775076951789 724.8794695661159 272.7792338042134L724.8794695661159 272.7792338042134Q713.0227180686363 276.796010842135 705.7876799099704 279.14316368959527Q698.5768392033399 281.49031653705543 695.7699347672019 282.19204264609L695.7699347672019 282.19204264609Q695.7699347672019 282.8937687551245 694.5600621654182 286.4507942043683Q693.3501895636348 290.0320171056478 690.373902963247 299.78359027602386L690.373902963247 299.78359027602386Q683.937380721758 320.85957099909444 677.8396228087686 335.59581928881903Q671.7418648957791 350.30787012650785 665.2811452022547 359.5512968041347L665.2811452022547 359.5512968041347Q652.5774828835267 377.84457054310303 636.897533964411 377.84457054310303ZM721.032074692444 326.7879467478342L721.032074692444 326.7879467478342Q706.2232340466123 326.7879467478342 706.2232340466123 313.01959653953656L706.2232340466123 313.01959653953656Q706.2232340466123 302.39691509587647 716.676533326023 287.24931012154553L716.676533326023 287.24931012154553Q727.4927943859684 272.0775076951789 737.2443675563445 272.0775076951789L737.2443675563445 272.0775076951789Q741.4305267585157 272.0775076951789 744.6487878792602 274.7876223231742Q747.8670490000047 277.49773695116954 747.8670490000047 281.32093437280577L747.8670490000047 281.32093437280577Q747.8670490000047 287.75745661429465 739.6883102119473 294.38755847206886L739.6883102119473 294.38755847206886Q731.6789535881398 300.82408071355775 723.838979128582 300.82408071355775L723.838979128582 300.82408071355775Q722.2661447462633 300.82408071355775 722.2661447462633 300.1465520565589L722.2661447462633 300.1465520565589L722.7742912390124 299.27544378327474Q742.8097815245492 292.98410625399987 742.8097815245492 278.70760955295316L742.8097815245492 278.70760955295316Q742.8097815245492 276.6266286778853 741.4305267585157 276.6266286778853L741.4305267585157 276.6266286778853Q739.5189280476977 276.6266286778853 734.4616605722422 280.61920826377127L734.4616605722422 280.61920826377127Q730.1061192058212 284.1036413569081 726.3555141402919 288.6285648875788Q722.6049090747626 293.17768587028525 719.6528199264105 298.0413737294554L719.6528199264105 298.0413737294554Q713.3856798491715 308.6640551731156 713.3856798491715 315.82650097567466L713.3856798491715 315.82650097567466Q713.3856798491715 322.7953671619483 718.7817116531264 322.7953671619483L718.7817116531264 322.7953671619483Q725.0488517303656 322.7953671619483 732.550061861424 316.3346474684238L732.550061861424 316.3346474684238Q734.9698070649913 314.0842844291062 737.7767115011293 311.2047876368612Q740.5594184852316 308.3252908446162 743.8744694141187 304.84085775147935L743.8744694141187 304.84085775147935Q750.3109916556075 297.8719915652057 750.6497559841071 297.8719915652057L750.6497559841071 297.8719915652057Q751.7144438736766 297.8719915652057 751.7144438736766 298.64631003034725Q751.7144438736766 299.4448259475244 751.3514820931416 300.1465520565589L751.3514820931416 300.1465520565589Q733.0582083541731 326.7879467478342 721.032074692444 326.7879467478342ZM759.5544183332345 326.44918241933476L759.5544183332345 326.44918241933476Q751.1820999288918 326.44918241933476 751.1820999288918 312.51145004678744L751.1820999288918 312.51145004678744Q751.1820999288918 303.63098514969573 756.7475138970965 283.2325330836239L756.7475138970965 283.2325330836239Q762.3371253173368 262.688896305338 770.8788258859292 245.43611300390353L770.8788258859292 245.43611300390353Q779.5899086187712 227.84456537396966 786.1958130245098 227.84456537396966L786.1958130245098 227.84456537396966Q790.0432078981817 227.84456537396966 793.8664053198179 230.3611003856796Q797.6896027414543 232.87763539738953 797.6896027414543 235.85392199777726L797.6896027414543 235.85392199777726Q797.6896027414543 248.3882021522556 760.7642909350182 291.6048514879665L760.7642909350182 291.6048514879665Q759.360838716949 298.0413737294554 758.5865202518075 303.63098514969573Q757.812201786666 309.1963991179004 757.812201786666 314.0842844291062L757.812201786666 314.0842844291062Q757.812201786666 323.66647543523254 761.9741635368018 323.66647543523254L761.9741635368018 323.66647543523254L764.7810679729398 322.7953671619483Q765.6521762462239 322.7953671619483 765.6521762462239 323.66647543523254L765.6521762462239 323.66647543523254Q765.6521762462239 326.44918241933476 759.5544183332345 326.44918241933476ZM761.9741635368018 287.0799279572958L761.9741635368018 287.0799279572958Q793.5276409913185 245.94425949665265 793.5276409913185 235.32157805299246L793.5276409913185 235.32157805299246Q793.5276409913185 233.24059717792463 792.2935709374992 233.24059717792463L792.2935709374992 233.24059717792463Q787.0669212977941 233.24059717792463 777.1459659631682 251.8726352453924L777.1459659631682 251.8726352453924Q767.2008131765069 270.5288707648958 761.9741635368018 287.0799279572958Z " fill="black" transform="matrix(1.0969178910360973,0,0,1.0969178910360973,0,-32.19560599445994)"/></g></svg>